<svg xmlns="http://www.w3.org/2000/svg" id="Layer_1" data-name="Layer 1" viewBox="71.95 0 636.1 311.71"><defs><linearGradient id="gradient-63" x1="395.41" x2="395.41" y1="183.3" y2="249.08" gradientUnits="userSpaceOnUse"><stop offset="0" stop-color="#1f001c"/><stop offset=".16" stop-color="#220223" stop-opacity=".98"/><stop offset=".36" stop-color="#2a0a37" stop-opacity=".93"/><stop offset=".57" stop-color="#391759" stop-opacity=".86"/><stop offset=".69" stop-color="#432071" stop-opacity=".8"/><stop offset=".95" stop-color="#764ce8" stop-opacity=".8"/><stop offset="1" stop-color="#8055ff" stop-opacity=".8"/></linearGradient><linearGradient id="gradient-705" x1="395.11" x2="395.11" y1="164.46" y2="95.6" gradientUnits="userSpaceOnUse"><stop offset="0" stop-color="#00122e"/><stop offset=".09" stop-color="#001a38"/><stop offset=".26" stop-color="#003255"/><stop offset=".48" stop-color="#005984"/><stop offset=".58" stop-color="#006e9e"/><stop offset="1" stop-color="#005399"/></linearGradient><linearGradient id="gradient-584" x1="599.74" x2="599.74" y1="103.83" y2="71.12" gradientUnits="userSpaceOnUse"><stop offset="0" stop-color="#250529"/><stop offset=".4" stop-color="#24062a"/><stop offset=".55" stop-color="#220d32"/><stop offset=".67" stop-color="#1e193e"/><stop offset=".76" stop-color="#1a2a4f"/><stop offset=".85" stop-color="#134066"/><stop offset=".92" stop-color="#0b5c82"/><stop offset=".99" stop-color="#027ba2"/><stop offset="1" stop-color="#0084ab"/></linearGradient><linearGradient id="gradient-576" x1="185.69" x2="185.69" y1="103.83" y2="71.12" gradientUnits="userSpaceOnUse"><stop offset="0" stop-color="#250529"/><stop offset=".38" stop-color="#24062a"/><stop offset=".53" stop-color="#220c32"/><stop offset=".64" stop-color="#1f163e"/><stop offset=".73" stop-color="#1b254f"/><stop offset=".81" stop-color="#163866"/><stop offset=".88" stop-color="#0f5082"/><stop offset=".95" stop-color="#086ba2"/><stop offset="1" stop-color="#0089c5"/></linearGradient><linearGradient id="gradient-101" x1="392.67" x2="392.67" y1="272.13" y2="243.1" gradientUnits="userSpaceOnUse"><stop offset="0" stop-color="#774dea"/><stop offset=".04" stop-color="#7046d9"/><stop offset=".17" stop-color="#5b34a9"/><stop offset=".3" stop-color="#49257f"/><stop offset=".43" stop-color="#3b185d"/><stop offset=".57" stop-color="#300e43"/><stop offset=".7" stop-color="#280730"/><stop offset=".85" stop-color="#230325"/><stop offset="1" stop-color="#220222"/></linearGradient><linearGradient id="gradient-643" x1="394.17" x2="394.17" y1="8.89" y2="294.32" gradientUnits="userSpaceOnUse"><stop offset=".05" stop-color="#00025b"/><stop offset=".08" stop-color="#000c63"/><stop offset=".14" stop-color="#002778"/><stop offset=".21" stop-color="#00549b"/><stop offset=".28" stop-color="#0090ca"/><stop offset=".37" stop-color="#03689a"/><stop offset=".46" stop-color="#07436d"/><stop offset=".55" stop-color="#0a2649"/><stop offset=".63" stop-color="#0c112f"/><stop offset=".71" stop-color="#0d0420"/><stop offset=".77" stop-color="#0e001b"/></linearGradient><linearGradient id="gradient-569" x1="392.67" x2="392.67" y1="243.1" y2="272.13" gradientUnits="userSpaceOnUse"><stop offset="0" stop-color="#000f32"/><stop offset=".45" stop-color="#001033"/><stop offset=".62" stop-color="#00143a"/><stop offset=".73" stop-color="#001c46"/><stop offset=".83" stop-color="#002857"/><stop offset=".91" stop-color="#00366d"/><stop offset=".95" stop-color="#00417c"/></linearGradient><linearGradient id="gradient-218" x1="396.12" x2="396.12" y1="251.86" y2="174.23" gradientUnits="userSpaceOnUse"><stop offset="0" stop-color="#004275"/><stop offset=".05" stop-color="#003564"/><stop offset=".13" stop-color="#00264e"/><stop offset=".23" stop-color="#001a3d"/><stop offset=".35" stop-color="#001231"/><stop offset=".52" stop-color="#000d2a"/><stop offset="1" stop-color="#000c29"/></linearGradient><linearGradient id="gradient-542" x1="394.22" x2="394.22" y1="254.82" y2="277.54" gradientUnits="userSpaceOnUse"><stop offset="0" stop-color="#aec5ff"/><stop offset=".11" stop-color="#005d96"/><stop offset=".12" stop-color="#004a7e"/><stop offset=".14" stop-color="#003968"/><stop offset=".16" stop-color="#002c57"/><stop offset=".19" stop-color="#00234b"/><stop offset=".23" stop-color="#001e44"/><stop offset=".33" stop-color="#001d43"/><stop offset=".58" stop-color="#000f34"/><stop offset=".95" stop-color="#000024"/></linearGradient><linearGradient id="gradient-674" x1="394.57" x2="394.57" y1="96.58" y2="0" gradientUnits="userSpaceOnUse"><stop offset="0" stop-color="#000a18"/><stop offset=".09" stop-color="#071222"/><stop offset=".25" stop-color="#1a2a3e"/><stop offset=".46" stop-color="#39516b"/><stop offset=".71" stop-color="#6486ab"/><stop offset=".99" stop-color="#9acafa"/><stop offset="1" stop-color="#9eceff"/></linearGradient><style>.cls-2{fill:#fff}.cls-4{fill:none;stroke:#000;stroke-miterlimit:10}</style></defs><path d="M1.33 264.6 0 68.6" style="fill:none"/><path d="M616 243.1h-.01M533.78 272.13c-19.55 6.4-254.52 7.99-279.11 0l.03-.06c4.19-6.87 9.13-12.81 17.16-14.88 81.83-3.13 163.03-3.18 243.55 0 8.02 1.74 14.39 6.29 18.37 14.94Z" class="cls-4"/><path d="M545.63 210.97c-29.03 50.96-264.03 50.67-300.44 0 2.92-3.94 8.5-7.47 16.16-10.58 54.92-22.35 216.61-23.29 269.65.26h.01c6.83 3.03 11.85 6.47 14.62 10.32Z" style="fill:url(#gradient-63)"/><path d="M568.15 96.58c-36.15 20.76-61.63 72.32-82.96 67.58H303.26c-23.11 4.74-59.26-56.3-81.18-68.56l7.29.02 8.72.03 322.18.91h.01l7.87.02Z" style="fill:url(#gradient-705)"/><path d="M230.97 292.75c-7.95.31-12.11 4.34-13.34 11.28-.78 4.4-4.49 7.68-8.96 7.68h-39.09c-12.91-1.91-14.68-26.09-15.91-52.42 1.55 16.23 5.04 27 11.52 29.31l65.78 4.15Z" style="fill:#000025"/><path d="M635.68 232.89c-.66 32.6 4.53 75.95-9.26 75.88l-49.56 2.58c-3.79.2-6.93-2.8-7.01-6.59-.12-6.38-1.63-10.59-15.91-10.44" style="fill:#00061f"/><path d="M573.56 96.83c1.53 2.53 4.95.96 8.21-.24-.97-18.4 2.14-24.7 7.11-25.47 14.38.7 24.3 2.2 28.45 4.74 4.45 2.39 6.79 9.75 8.59 18.38-2.14 8.47-37.78 4.36-47.56 9.59" style="fill:url(#gradient-584);stroke:#000;stroke-miterlimit:10"/><path d="M573.69 95.5c-.05-.07-.09-.14-.13-.21" class="cls-4"/><path d="M207.11 103.83c-9.77-5.23-45.42-1.13-47.55-9.6 1.8-8.63 4.13-15.98 8.59-18.37 4.15-2.55 14.07-4.05 28.45-4.74 4.96.77 8.07 7.06 7.11 25.46 3.19 1.18 6.53 2.69 8.11.4" style="fill:url(#gradient-576);stroke:#000;stroke-miterlimit:10"/><path d="M626.06 174.23c0 2.43-2.9 41.43-10.07 68.87-65.36 12.35-388.25 11-446.63 0-4.83-21.61-3.92-51.45 1.16-68.87 7.37 8.4 47.99 17.26 90.83 26.16-7.66 3.11-13.24 6.64-16.16 10.58 36.41 50.67 271.41 50.96 300.44 0-2.77-3.85-7.79-7.29-14.62-10.32 36.32-6.95 77.8-11.83 95.05-26.42Z" class="cls-4"/><path d="M615.99 243.1c-3.33 12.75-7.58 23.01-12.88 25.94-3.3-5.33-57.48-.14-69.33 3.09-3.98-8.65-10.35-13.2-18.37-14.94-80.52-3.18-161.72-3.13-243.55 0-8.03 2.07-12.97 8.01-17.16 14.88.85-2.74-58.75-9-68.89-3.03-8.04-1.86-13.4-12.25-16.45-25.94 58.38 11 381.27 12.35 446.63 0Z" style="fill:url(#gradient-101);stroke:#000;stroke-miterlimit:10"/><path d="m635.14 179.56-3.16-33.77c-1.71-16.87-25.55-26.45-51.59-41.24-2.89-1.64-5.09-4.3-6.16-7.45-.18-.52-.36-1.05-.53-1.57s-.01-.02-.01-.03C557.76 49.03 536 5.38 523.19 9.12c1.95 1.2 3.76 2.66 5.37 4.35 16.64 17.46 25.46 48.31 35.58 76.94 1.01 2.86-.94 5.84-3.86 6.15l7.87.02c-36.15 20.76-61.63 72.32-82.96 67.58H303.26c-23.11 4.74-59.26-56.3-81.18-68.56l7.29.02c-3.23-.01-5.46-3.23-4.33-6.26 12.33-32.9 23.5-69.02 43.61-80.24-29.59 3.79-36.26 53.56-56.59 87.46-.07.13-.15.27-.24.4-1.03 1.71-2.1 3.38-3.21 5-.45.66-.95 1.28-1.5 1.85-1.32 1.39-2.9 2.54-4.62 3.42-52.12 26.68-43.93 31.26-46.82 38.54-3.01 40.88-2.24 53.1-2.93 79.4-.09 5.17-.11 10.13-.03 14.83.39 6.34.65 12.85.95 19.22.01.02.01.04.01.05 1.55 16.23 5.04 27 11.52 29.31l65.78 4.15c-15.09-13.89 350.98-7.54 322.98 1.57l68.14-2.96c14-6.25 14.47-76.46 13.05-111.8Zm-48.76-59.26c2.68-1.01 5.59-1.27 8.38-.66 12.29 2.72 16.53 15.72 16.11 33.23-.12 4.86-2.95 9.28-7.33 11.39-23.81 11.44-60.25 17.6-84.98 3.45-6.3-3.14 36.09-35.39 67.82-47.41Zm-392.51-.66c2.79-.61 5.71-.35 8.38.66 31.74 12.02 74.13 44.27 67.83 47.41-24.74 14.15-61.18 7.99-84.98-3.45-4.39-2.11-7.21-6.53-7.33-11.39-.43-17.51 3.82-30.51 16.1-33.23Z" style="fill:url(#gradient-643)"/><path d="M615.99 243.1c-3.33 12.75-7.58 23.01-12.88 25.94-3.3-5.33-57.48-.14-69.33 3.09-3.98-8.65-10.35-13.2-18.37-14.94-80.52-3.18-161.72-3.13-243.55 0-8.03 2.07-12.97 8.01-17.16 14.88.85-2.74-58.75-9-68.89-3.03-8.04-1.86-13.4-12.25-16.45-25.94 58.38 11 381.27 12.35 446.63 0Z" style="fill:url(#gradient-569)"/><path d="M626.06 174.23c0 2.43-2.9 41.43-10.07 68.87-65.36 12.35-388.25 11-446.63 0-4.83-21.61-3.92-51.45 1.16-68.87 7.37 8.4 47.99 17.26 90.83 26.16 54.92-22.35 216.61-23.29 269.65.26h.01c36.32-6.95 77.8-11.83 95.05-26.42Z" style="fill:url(#gradient-218)"/><path d="M533.78 272.13c-19.55 6.4-254.52 7.99-279.11 0l.03-.06c4.19-6.87 9.13-12.81 17.16-14.88 81.83-3.13 163.03-3.18 243.55 0 8.02 1.74 14.39 6.29 18.37 14.94Z" style="fill:url(#gradient-542)"/><path d="M610.87 152.87c-.12 4.86-2.95 9.28-7.33 11.39-23.81 11.44-60.25 17.6-84.98 3.45-6.3-3.14 36.09-35.39 67.82-47.41 2.68-1.01 5.59-1.27 8.38-.66 12.29 2.72 16.53 15.72 16.11 33.23ZM270.08 167.71c-24.74 14.15-61.18 7.99-84.98-3.45-4.39-2.11-7.21-6.53-7.33-11.39-.43-17.51 3.82-30.51 16.1-33.23 2.79-.61 5.71-.35 8.38.66 31.74 12.02 74.13 44.27 67.83 47.41Z" class="cls-2"/><path d="M153.66 259.24c-.54-5.76-.85-12.21-.95-19.22" class="cls-4"/><path d="M560.28 96.56s-.01-.01-.01 0c-.17.01-.34.02-.51.02l-321.67-.93-8.72-.03c-3.23-.01-5.46-3.23-4.33-6.26 12.33-32.9 23.5-69.02 43.61-80.24 2.85-1.59 5.89-2.68 9.13-3.19 74.44-7.98 152.6-7.59 233.65-.71 4.21.36 8.22 1.71 11.76 3.9 1.95 1.2 3.76 2.66 5.37 4.35 16.64 17.46 25.46 48.31 35.58 76.94 1.01 2.86-.94 5.84-3.86 6.15Z" style="fill:url(#gradient-674)"/></svg>